<?xml version="1.0" encoding="UTF-8" standalone="no"?>
<!-- Generator: Adobe Illustrator 23.1.1, SVG Export Plug-In . SVG Version: 6.00 Build 0)  -->

<svg
   version="1.1"
   id="Layer_1"
   x="0px"
   y="0px"
   viewBox="0 0 299.99999 300.00001"
   xml:space="preserve"
   sodipodi:docname="Dioptra Data logo black 300x300.svg"
   inkscape:version="1.4.2 (ebf0e940, 2025-05-08)"
   width="300"
   height="300"
   xmlns:inkscape="http://www.inkscape.org/namespaces/inkscape"
   xmlns:sodipodi="http://sodipodi.sourceforge.net/DTD/sodipodi-0.dtd"
   xmlns="http://www.w3.org/2000/svg"
   xmlns:svg="http://www.w3.org/2000/svg"><defs
   id="defs3" /><sodipodi:namedview
   id="namedview3"
   pagecolor="#ffffff"
   bordercolor="#000000"
   borderopacity="0.25"
   inkscape:showpageshadow="2"
   inkscape:pageopacity="0.0"
   inkscape:pagecheckerboard="0"
   inkscape:deskcolor="#d1d1d1"
   inkscape:zoom="1.0690105"
   inkscape:cx="143.59073"
   inkscape:cy="137.04262"
   inkscape:window-width="1512"
   inkscape:window-height="916"
   inkscape:window-x="0"
   inkscape:window-y="38"
   inkscape:window-maximized="0"
   inkscape:current-layer="Layer_1" />

<g
   id="g4"
   transform="translate(-266.65,-133.5)"><g
     id="g1">
	<path
   d="m 358.4,287.6 c -1,-0.9 -1.9,-1.9 -2.9,-2.8 l -24.8,26.6 c 40.7,38 104,36.6 143,-2.4 l -23.6,-22 c -25.3,24.3 -65.6,24.9 -91.7,0.6 M 352.7,196 c -21.7,26 -20.5,64.2 2.9,88.8 l 42.9,-46 z m 50.8,37.3 42.9,-46 c -26.1,-21.6 -64.3,-20.2 -88.7,3.3 z m 75.3,70.2 C 515,261.8 512,198.6 471.3,160.6 l -24.8,26.6 c 1,0.9 2,1.7 3,2.6 26.1,24.3 28.3,64.6 5.7,91.6 z"
   id="path1" />
</g><g
     id="g3">
	<path
   d="m 418,397.7 6.5,-14.4 6.6,14.4 z m 17,8.5 h 2 l -11.5,-24.9 h -1.8 l -11.5,24.9 h 2 l 3.2,-7 h 14.5 z m -42.5,-9.8 v -13.5 h 7.1 c 5.3,0 8.2,2.5 8.2,6.8 0,4.3 -2.9,6.8 -8.2,6.8 h -7.1 z m 17.6,9.8 -6.2,-8.7 c 3.7,-1.1 5.8,-3.8 5.8,-7.8 0,-5.3 -3.8,-8.4 -10,-8.4 h -8.9 v 24.9 h 1.8 V 398 h 7.1 c 0.9,0 1.6,-0.1 2.4,-0.2 l 6,8.3 h 2 z m -34.7,0 h 1.8 v -23.3 h 9 v -1.6 h -19.8 v 1.6 h 9 z m -20.1,-9.8 h -7.1 v -13.5 h 7.1 c 5.3,0 8.2,2.5 8.2,6.8 0,4.3 -2.8,6.7 -8.2,6.7 m 0,-15.1 h -8.9 v 24.9 h 1.8 V 398 h 7.1 c 6.3,0 10,-3.1 10,-8.4 0.1,-5.2 -3.7,-8.3 -10,-8.3 m -28.2,23.4 c -6.4,0 -11.2,-4.7 -11.2,-11 0,-6.3 4.8,-11 11.2,-11 6.3,0 11.1,4.7 11.1,11 0,6.3 -4.8,11 -11.1,11 m 0,1.7 c 7.4,0 13,-5.4 13,-12.6 0,-7.3 -5.6,-12.6 -13,-12.6 -7.4,0 -13,5.4 -13,12.6 0,7.2 5.5,12.6 13,12.6 M 306,406.2 h 1.8 V 381.3 H 306 Z m -27.6,-1.6 v -21.7 h 7.9 c 7.1,0 11.6,4.5 11.6,10.8 0,6.3 -4.5,10.8 -11.6,10.8 h -7.9 z m -1.8,1.6 h 9.9 c 7.9,0 13.3,-5.2 13.3,-12.5 0,-7.3 -5.3,-12.5 -13.3,-12.5 h -9.9 z"
   id="path2" />
	<path
   d="m 538.9,396 3.2,-8 3.2,8 z m 10.5,10 h 7.3 l -11,-24.9 h -6.9 l -11,24.9 h 7.2 l 2,-4.8 h 10.5 z m -34.8,0 h 7.1 v -19.3 h 7.6 v -5.6 H 507 v 5.6 h 7.7 V 406 Z m -23.8,-10 3.2,-8 3.2,8 z m 10.4,10 h 7.3 l -11,-24.9 h -6.9 l -11,24.9 h 7.2 l 2,-4.8 h 10.5 z m -40.7,-5.6 v -13.7 h 4.5 c 4.2,0 7.1,2.5 7.1,6.8 0,4.3 -2.9,6.8 -7.1,6.8 h -4.5 z m -7,5.6 h 11.8 c 8.3,0 13.9,-4.8 13.9,-12.5 0,-7.7 -5.7,-12.5 -13.9,-12.5 h -11.8 z"
   id="path3" />
</g></g>
</svg>
