<?xml version="1.0" encoding="UTF-8" standalone="no"?>
<!-- Generator: Adobe Illustrator 23.1.1, SVG Export Plug-In . SVG Version: 6.00 Build 0)  -->

<svg
   version="1.1"
   id="Layer_1"
   x="0px"
   y="0px"
   viewBox="0 0 180 180.00001"
   xml:space="preserve"
   sodipodi:docname="Dioptra Data logo black 300x300 no text.svg"
   inkscape:version="1.4.2 (ebf0e940, 2025-05-08)"
   width="180"
   height="180"
   inkscape:export-filename="logo160x160.png"
   inkscape:export-xdpi="51.200001"
   inkscape:export-ydpi="51.200001"
   xmlns:inkscape="http://www.inkscape.org/namespaces/inkscape"
   xmlns:sodipodi="http://sodipodi.sourceforge.net/DTD/sodipodi-0.dtd"
   xmlns="http://www.w3.org/2000/svg"
   xmlns:svg="http://www.w3.org/2000/svg"><defs
   id="defs3" /><sodipodi:namedview
   id="namedview3"
   pagecolor="#ffffff"
   bordercolor="#000000"
   borderopacity="0.25"
   inkscape:showpageshadow="2"
   inkscape:pageopacity="0.0"
   inkscape:pagecheckerboard="0"
   inkscape:deskcolor="#d1d1d1"
   inkscape:zoom="1.0690105"
   inkscape:cx="79.980502"
   inkscape:cy="76.238724"
   inkscape:window-width="1512"
   inkscape:window-height="916"
   inkscape:window-x="0"
   inkscape:window-y="38"
   inkscape:window-maximized="0"
   inkscape:current-layer="Layer_1" />

<g
   id="g1"
   transform="translate(-327.36092,-159.84629)">
	<path
   d="m 358.4,287.6 c -1,-0.9 -1.9,-1.9 -2.9,-2.8 l -24.8,26.6 c 40.7,38 104,36.6 143,-2.4 l -23.6,-22 c -25.3,24.3 -65.6,24.9 -91.7,0.6 M 352.7,196 c -21.7,26 -20.5,64.2 2.9,88.8 l 42.9,-46 z m 50.8,37.3 42.9,-46 c -26.1,-21.6 -64.3,-20.2 -88.7,3.3 z m 75.3,70.2 C 515,261.8 512,198.6 471.3,160.6 l -24.8,26.6 c 1,0.9 2,1.7 3,2.6 26.1,24.3 28.3,64.6 5.7,91.6 z"
   id="path1" />
</g>
</svg>
